<svg id="Layer_1" enable-background="new 0 0 299.877 299.877" viewBox="0 0 299.877 299.877" xmlns="http://www.w3.org/2000/svg"><path d="m297.786 144.89c-33.023-33.015-91.535-66.338-147.877-66.352-63.396 0-104.865 26.454-147.641 66.174-2.699 2.513-3.035 6.69-.764 9.618 2.128 2.735 53.214 67.009 148.433 67.009 59.947 0 133.354-44.347 148.74-67.437 1.893-2.836 1.508-6.605-.891-9.012zm-147.848 62.168c-73.085 0-119.045-41.99-132.818-56.584 46.481-41.919 83.017-57.656 132.818-57.656 56.006.014 107.864 34.408 133.125 57.727-18.878 19.935-81.817 56.513-133.125 56.513z"/><path d="m99.958 149.953c0 27.539 22.427 49.98 49.98 49.98 27.568 0 49.994-22.427 49.994-49.987s-22.427-49.987-49.994-49.987c-27.553-.001-49.98 22.426-49.98 49.994zm85.694-.007c0 19.678-16.022 35.7-35.714 35.7-19.685 0-35.7-16.022-35.7-35.7 0-19.692 16.015-35.707 35.7-35.707 19.692-.001 35.714 16.022 35.714 35.707z"/><path d="m121.378 149.953c0 3.948 3.192 7.14 7.14 7.14s7.14-3.192 7.14-7.147c0-7.89 6.397-14.287 14.28-14.287 3.948 0 7.14-3.192 7.14-7.14s-3.192-7.14-7.14-7.14c-15.751-.001-28.56 12.816-28.56 28.574z"/></svg>