<svg version="1.1" class="skull_icon" xmlns="http://www.w3.org/2000/svg" xmlns:xlink="http://www.w3.org/1999/xlink" x="0px" y="0px"
	 width="189px" height="154px" viewBox="0 0 189 154" enable-background="new 0 0 189 154" xml:space="preserve">
<rect x="160.917" y="112.583" width="12" height="12"/>
<rect x="160.917" y="28.583" width="12" height="12"/>
<rect x="148.917" y="124.583" width="12" height="12"/>
<rect x="148.917" y="112.583" width="12" height="12"/>
<rect x="148.917" y="28.583" width="12" height="12"/>
<polygon points="160.917,17.083 160.917,28.583 148.917,28.583 148.917,17.083 148.917,16.583 160.917,16.583 "/>
<rect x="136.917" y="100.583" width="12" height="12"/>
<rect x="136.917" y="40.583" width="12" height="12"/>
<rect x="124.917" y="88.583" width="12" height="12"/>
<rect x="124.917" y="76.583" width="12" height="12"/>
<rect x="124.917" y="64.583" width="12" height="12"/>
<rect x="124.917" y="52.583" width="12" height="12"/>
<rect x="112.917" y="112.583" width="12" height="12"/>
<rect x="112.917" y="100.583" width="12" height="12"/>
<rect x="112.917" y="88.583" width="12" height="12"/>
<rect x="112.917" y="52.583" width="12" height="12"/>
<rect x="112.917" y="40.583" width="12" height="12"/>
<rect x="100.917" y="100.583" width="12" height="12"/>
<rect x="100.917" y="88.583" width="12" height="12"/>
<rect x="100.917" y="76.583" width="12" height="12"/>
<rect x="100.917" y="52.583" width="12" height="12"/>
<rect x="100.917" y="40.583" width="12" height="12"/>
<rect x="88.917" y="112.583" width="12" height="12"/>
<rect x="88.917" y="100.583" width="12" height="12"/>
<rect x="88.917" y="76.583" width="12" height="12"/>
<rect x="88.917" y="64.583" width="12" height="12"/>
<rect x="88.917" y="52.583" width="12" height="12"/>
<rect x="88.917" y="40.583" width="12" height="12"/>
<rect x="76.917" y="100.583" width="12" height="12"/>
<rect x="76.917" y="88.583" width="12" height="12"/>
<rect x="76.917" y="76.583" width="12" height="12"/>
<rect x="76.917" y="52.583" width="12" height="12"/>
<rect x="76.917" y="40.583" width="12" height="12"/>
<rect x="64.917" y="112.583" width="12" height="12"/>
<rect x="64.917" y="100.583" width="12" height="12"/>
<rect x="64.917" y="88.583" width="12" height="12"/>
<rect x="64.917" y="52.583" width="12" height="12"/>
<rect x="64.917" y="40.583" width="12" height="12"/>
<rect x="52.917" y="88.583" width="12" height="12"/>
<rect x="52.917" y="76.583" width="12" height="12"/>
<rect x="52.917" y="64.583" width="12" height="12"/>
<rect x="52.917" y="52.583" width="12" height="12"/>
<rect x="40.917" y="100.583" width="12" height="12"/>
<rect x="40.917" y="40.583" width="12" height="12"/>
<rect x="28.917" y="124.583" width="12" height="12"/>
<rect x="28.917" y="112.583" width="12" height="12"/>
<rect x="28.917" y="28.583" width="12" height="12"/>
<polygon points="40.917,17.083 40.917,28.583 28.917,28.583 28.917,17.083 28.917,16.583 40.917,16.583 "/>
<rect x="16.917" y="112.583" width="12" height="12"/>
<rect x="16.917" y="28.583" width="12" height="12"/>
</svg>
